<svg width="45" height="44" viewBox="0 0 45 44" fill="none" xmlns="http://www.w3.org/2000/svg">
<path d="M19.2083 29.8282C17.9414 29.2401 16.6957 28.6362 15.4992 28.0221C14.4172 27.4669 13.3776 26.9041 12.3926 26.338L15.1287 43.6061H21.4815L19.2083 29.8282Z" fill="#154F30"/>
<path d="M36.8236 22.2032H35.1467C35.2624 24.3872 35.5235 26.5628 35.9288 28.7183C36.2257 30.3848 36.6973 32.0219 37.3373 33.6075C37.6221 34.3221 38.013 34.9985 38.499 35.6179C38.6842 35.8488 38.9084 36.0519 39.1635 36.2197C39.3551 36.3501 39.5868 36.4237 39.8265 36.4301C39.9508 36.4294 40.074 36.4076 40.1895 36.3657C40.3333 36.3128 40.4678 36.2413 40.5888 36.1532C40.9379 35.8862 41.2335 35.5667 41.4624 35.2087C42.195 34.0255 42.7384 32.7544 43.0764 31.4333C44.155 27.2575 44.6669 22.9782 44.6009 18.6904C44.6115 15.8543 44.4075 13.021 43.9902 10.2101C43.6999 8.07132 43.1602 5.96628 42.38 3.93019C42.0635 3.07189 41.5854 2.26958 40.9669 1.55859C40.7589 1.32567 40.4926 1.14078 40.1902 1.01915C40.0747 0.977304 39.9516 0.955445 39.8273 0.954712C39.5875 0.961299 39.356 1.03481 39.1643 1.16514C38.8663 1.36423 38.6086 1.60841 38.4027 1.8869C37.7503 2.80148 37.2527 3.79906 36.9259 4.84662C35.8774 8.21375 35.2806 11.6827 35.1483 15.1789H36.8252C37.8452 15.1918 38.8187 15.5674 39.5349 16.2244C40.2512 16.8815 40.6527 17.7672 40.6527 18.69C40.6527 19.6128 40.2512 20.4985 39.5349 21.1556C38.8187 21.8127 37.8452 22.1883 36.8252 22.2012" fill="#154F30"/>
<path d="M5.00537 23.1286V24.7188C5.00537 24.8343 5.05606 24.945 5.1463 25.0266C5.23655 25.1082 5.35892 25.1541 5.48652 25.1541H12.1446C12.7332 25.5059 13.3466 25.8573 13.9852 26.2083C19.2411 28.9989 24.7165 31.4367 30.3671 33.502C33.2563 34.5768 35.7993 35.4212 37.5572 35.923C36.8774 34.9546 36.3548 33.9029 36.0054 32.8001C34.9293 29.3548 34.3169 25.8046 34.1815 22.2266C34.1194 21.086 34.0845 19.9023 34.0845 18.6939C34.0845 17.4854 34.1202 16.3024 34.1815 15.1611C34.2986 12.9346 34.5646 10.7166 34.9779 8.51925C35.2857 6.79696 35.7743 5.10523 36.4373 3.4669C36.605 3.07251 36.7949 2.68606 37.0063 2.3092L36.7934 2.36884C35.2098 2.8178 33.1563 3.46553 30.8635 4.26475C25.7625 6.01672 20.787 8.05411 15.9658 10.3651C14.7148 10.982 13.5214 11.6037 12.4174 12.2302H5.48652C5.35892 12.2302 5.23655 12.2761 5.1463 12.3577C5.05606 12.4393 5.00537 12.55 5.00537 12.6654V15.133C3.87969 15.1942 2.82229 15.6417 2.04918 16.3844C1.276 17.127 0.845459 18.1086 0.845459 19.1288C0.845459 20.1489 1.276 21.1305 2.04918 21.8731C2.82229 22.6158 3.87969 23.0634 5.00537 23.1245M5.96843 13.0986H13.501V24.2795H5.96843V13.0986Z" fill="#154F30"/>
</svg>
