<svg width="29" height="29" viewBox="0 0 29 29" fill="none" xmlns="http://www.w3.org/2000/svg">
<path d="M15.9376 2.13199C15.9376 1.37774 15.3205 0.76062 14.5662 0.76062C13.8119 0.76062 13.1948 1.37774 13.1948 2.13199V3.50337C13.1948 4.25763 13.8119 4.87474 14.5662 4.87474C15.3205 4.87474 15.9376 4.25763 15.9376 3.50337V2.13199Z" fill="#F2C14E"/>
<path d="M15.9376 19.96C15.9376 19.2057 15.3205 18.5886 14.5662 18.5886C13.812 18.5886 13.1949 19.2057 13.1949 19.96V23.5116L12.7971 23.1005C12.2623 22.5657 11.3847 22.5657 10.8499 23.1005C10.315 23.6353 10.315 24.5129 10.8499 25.0477L13.5926 27.7905C14.1274 28.3253 15.005 28.3253 15.5399 27.7905L18.2826 25.0477C18.8174 24.5129 18.8174 23.6353 18.2826 23.1005C17.7478 22.5657 16.8702 22.5657 16.3354 23.1005L15.9376 23.5116V19.96Z" fill="#F2C14E"/>
<path d="M26.9088 15.8457C27.663 15.8457 28.2801 15.2285 28.2801 14.4743C28.2801 13.72 27.663 13.1029 26.9088 13.1029H25.5374C24.7831 13.1029 24.166 13.72 24.166 14.4743C24.166 15.2285 24.7831 15.8457 25.5374 15.8457H26.9088Z" fill="#F2C14E"/>
<path d="M4.96666 14.4743C4.96666 15.2285 4.34954 15.8457 3.59529 15.8457H2.22391C1.46966 15.8457 0.852539 15.2285 0.852539 14.4743C0.852539 13.72 1.46966 13.1029 2.22391 13.1029H3.59529C4.34954 13.1029 4.96666 13.72 4.96666 14.4743Z" fill="#F2C14E"/>
<path d="M24.2617 22.2366L23.2881 21.2629C22.7533 20.7281 21.8891 20.7281 21.3543 21.2629C20.8194 21.7978 20.8194 22.6613 21.3543 23.1961L22.3279 24.1697C22.8627 24.7046 23.7269 24.7046 24.2617 24.1697C24.7966 23.6349 24.7966 22.7714 24.2617 22.2366Z" fill="#F2C14E"/>
<path d="M7.77833 7.68574C7.24349 8.22058 6.37931 8.22058 5.84448 7.68574L4.87085 6.71212C4.33602 6.17728 4.33602 5.31377 4.87085 4.77893C5.40569 4.2441 6.26987 4.2441 6.80471 4.77893L7.77833 5.75256C8.31316 6.28739 8.31316 7.1509 7.77833 7.68574Z" fill="#F2C14E"/>
<path d="M4.87085 22.2366C4.33602 22.7714 4.33602 23.6349 4.87085 24.1697C5.40569 24.7046 6.26987 24.7046 6.80471 24.1697L7.77833 23.1961C8.31316 22.6613 8.31316 21.7978 7.77833 21.2629C7.24349 20.7281 6.37931 20.7281 5.84448 21.2629L4.87085 22.2366Z" fill="#F2C14E"/>
<path d="M21.3543 7.68574C20.8194 7.1509 20.8194 6.28739 21.3543 5.75256L22.3279 4.77893C22.8627 4.2441 23.7269 4.2441 24.2617 4.77893C24.7966 5.31377 24.7966 6.17728 24.2617 6.71212L23.2881 7.68574C22.7533 8.22058 21.8891 8.22058 21.3543 7.68574Z" fill="#F2C14E"/>
<path d="M10.3009 16.6825C9.36835 14.8723 9.65652 12.5957 11.1787 11.0872C13.0438 9.20839 16.0882 9.20839 17.9533 11.0872C19.4755 12.5957 19.7637 14.8723 18.8311 16.6825C18.4883 17.3545 18.7487 18.1777 19.4207 18.5206C20.0927 18.8771 20.929 18.6026 21.2719 17.9307C22.7392 15.0919 22.2867 11.5261 19.9005 9.13993C16.952 6.19148 12.18 6.19148 9.2315 9.13993C6.84531 11.5261 6.39276 15.0919 7.86013 17.9307C8.20297 18.6026 9.03931 18.8771 9.71128 18.5206C10.3833 18.1777 10.6437 17.3545 10.3009 16.6825Z" fill="#F2C14E"/>
</svg>
