<svg width="99" height="40" viewBox="0 0 99 40" fill="none" xmlns="http://www.w3.org/2000/svg">
<path fill-rule="evenodd" clip-rule="evenodd" d="M12.0789 7.70627C12.7679 7.362 13.3448 6.81536 13.738 6.13391C13.3619 6.40866 12.9425 6.61292 12.4987 6.73738C11.5027 7.0204 10.4396 6.88094 9.5425 6.34963C8.64558 5.81829 7.98824 4.93858 7.71501 3.9038C7.57868 3.38212 7.54541 2.83722 7.61678 2.30181C7.68833 1.76642 7.86316 1.25153 8.13077 0.788086C7.48005 1.26372 6.9859 1.93584 6.71524 2.71327C6.44462 3.49071 6.41053 4.33587 6.61762 5.13413C6.82271 5.89962 7.23948 6.58575 7.81585 7.10771C8.21557 7.4696 8.68007 7.74159 9.17984 7.90982C9.17204 7.91705 9.16441 7.92453 9.157 7.93219C9.04996 8.04303 8.98962 8.19336 8.98901 8.35035V9.625C8.9894 9.78206 9.04996 9.93254 9.15678 10.0435C9.26386 10.1544 9.4086 10.2169 9.55976 10.2172H9.93985C10.0906 10.2165 10.2349 10.1538 10.3416 10.0429C10.448 9.93202 10.5082 9.78184 10.5086 9.62511V8.35035C10.5082 8.26553 10.4906 8.18264 10.4575 8.10683C11.017 8.096 11.5703 7.96037 12.0789 7.70627ZM9.4601 13.9256H10.0383C10.2694 13.9251 10.4909 13.8299 10.6545 13.6603C10.8181 13.4907 10.9105 13.2607 10.9115 13.0205V11.0697C10.9107 10.8833 10.8548 10.7016 10.7514 10.5493C10.6479 10.397 10.5018 10.2815 10.3329 10.2184C10.2275 10.3245 10.0864 10.3838 9.93964 10.384H9.55955C9.4124 10.3842 9.27088 10.3248 9.1648 10.2184C8.99621 10.2815 8.85028 10.3971 8.74682 10.5494C8.64358 10.7017 8.58764 10.8833 8.58707 11.0697V13.0205C8.58807 13.2607 8.68028 13.4907 8.84387 13.6603C9.00745 13.8299 9.22898 13.9254 9.4601 13.9256Z" fill="#EC9D00"/>
<path fill-rule="evenodd" clip-rule="evenodd" d="M12.0082 16.2672C12.0082 16.7575 11.8683 17.2367 11.6063 17.6445C11.5702 17.7005 11.5319 17.7551 11.4916 17.8078C14.0051 18.2941 16.1795 19.8228 17.5964 21.9231C19.1462 24.3164 17.4783 27.5764 14.6984 27.5764H14.6196C14.6242 26.9246 14.5041 26.2786 14.2661 25.6757C14.0284 25.0728 13.6774 24.5252 13.2339 24.0645C12.7905 23.6039 12.2634 23.2395 11.6833 22.9925C11.1031 22.7454 10.4814 22.6211 9.85435 22.6263C8.5922 22.6298 7.38233 23.1524 6.48964 24.0798C5.59678 25.0074 5.09335 26.2644 5.08927 27.5764C5.08927 30.1767 7.03554 32.2808 9.45864 32.529H16.3468L20.7404 30.589C20.8237 30.5521 20.915 30.5374 21.0054 30.5459C21.0958 30.5544 21.183 30.5863 21.2588 30.6384C21.3344 30.6905 21.3967 30.7613 21.4396 30.8444C21.4827 30.9276 21.5052 31.0207 21.5052 31.1151V32.529H23.6336C23.7454 32.4894 23.8483 32.4267 23.9363 32.3446C24.0239 32.2623 24.0947 32.1625 24.1442 32.0511C24.1935 31.9396 24.2205 31.8187 24.2235 31.696C24.2266 31.5733 24.2055 31.4512 24.1618 31.3372C23.7126 30.1552 23.483 28.8955 23.4852 27.6245C23.4864 24.9869 24.4952 22.4579 26.2896 20.5929C28.084 18.7279 30.5176 17.6797 33.0551 17.6784C35.5929 17.6784 38.0268 18.7263 39.8213 20.5911C41.6157 22.4563 42.6238 24.9857 42.6238 27.6233C42.6238 30.2609 41.6157 32.7905 39.8213 34.6555C38.0268 36.5205 35.5929 37.5683 33.0551 37.5683H21.5052V38.7211C21.5052 38.8156 21.4827 38.9083 21.4396 38.9917C21.3967 39.0751 21.3346 39.1458 21.2588 39.1975C21.183 39.2496 21.0958 39.2816 21.0054 39.2906C20.915 39.2987 20.8237 39.2839 20.7404 39.2474L16.9338 37.566L9.73667 37.4814C4.25788 37.4814 -0.229256 32.6109 0.206248 26.8349C0.497293 22.4021 3.68248 18.72 7.78571 17.8476C7.53432 17.532 7.36131 17.1552 7.28393 16.7508C7.19189 16.2699 7.23902 15.7714 7.41965 15.3186C7.60006 14.8656 7.90578 14.4785 8.29809 14.2062C8.69021 13.9337 9.15149 13.7882 9.62323 13.7882C9.93636 13.7882 10.2465 13.8524 10.536 13.977C10.8252 14.1016 11.0883 14.2841 11.3096 14.5143C11.5311 14.7446 11.7067 15.0177 11.8266 15.3186C11.9465 15.6192 12.0082 15.9418 12.0082 16.2672ZM30.4079 31.7408C31.1915 32.2848 32.1129 32.5751 33.0551 32.5747C34.3171 32.5705 35.5261 32.0475 36.4185 31.1201C37.3106 30.1927 37.8141 28.9361 37.818 27.6245C37.8184 26.6452 37.539 25.6876 37.0155 24.8732C36.4923 24.0587 35.7483 23.4238 34.8776 23.049C34.0072 22.6742 33.0491 22.5758 32.1249 22.7671C31.2006 22.958 30.3516 23.4295 29.6852 24.122C29.019 24.8146 28.5652 25.697 28.3813 26.6577C28.1977 27.6183 28.2919 28.614 28.6528 29.5187C29.0136 30.4236 29.6243 31.1968 30.4079 31.7408Z" fill="#154F30"/>
<path d="M36.2757 13.3958C36.2757 14.058 36.0866 14.7051 35.7329 15.2556C35.3789 15.8063 34.8757 16.2353 34.2871 16.4886C33.6985 16.7422 33.051 16.8085 32.4261 16.6793C31.8013 16.5501 31.2273 16.2313 30.7768 15.7632C30.3264 15.2948 30.0196 14.6982 29.8952 14.0488C29.7709 13.3993 29.8346 12.7264 30.0786 12.1146C30.3224 11.5028 30.7351 10.9799 31.265 10.6121C31.7946 10.2442 32.4175 10.0479 33.0546 10.0479C33.9088 10.0479 34.7281 10.4006 35.3322 11.0284C35.9364 11.6563 36.2757 12.5078 36.2757 13.3958Z" fill="#79939E"/>
<path d="M52.1276 23.6364C52.1603 23.6364 52.1931 23.6432 52.2258 23.6569C52.2586 23.6678 52.29 23.6883 52.32 23.7183L52.8686 24.2956C52.6284 24.6095 52.3268 24.8469 51.9638 25.008C51.6035 25.1663 51.1764 25.2454 50.6823 25.2454C50.2292 25.2454 49.8225 25.169 49.4623 25.0162C49.1047 24.8606 48.8004 24.6477 48.5492 24.3775C48.3009 24.1045 48.1098 23.7824 47.9761 23.4112C47.8423 23.0373 47.7754 22.632 47.7754 22.1953C47.7754 21.7504 47.8478 21.3423 47.9924 20.9711C48.1371 20.5972 48.3404 20.2751 48.6025 20.0049C48.8645 19.7346 49.1784 19.5245 49.5441 19.3743C49.9099 19.2242 50.3125 19.1492 50.7519 19.1492C50.9757 19.1492 51.1859 19.1696 51.3824 19.2106C51.5817 19.2488 51.7673 19.3034 51.9392 19.3743C52.1112 19.4426 52.2695 19.5258 52.4142 19.6241C52.5588 19.7224 52.6871 19.8288 52.799 19.9434L52.3323 20.5699C52.3023 20.6081 52.2668 20.6436 52.2258 20.6763C52.1849 20.7063 52.1276 20.7213 52.0539 20.7213C52.0048 20.7213 51.9584 20.7104 51.9147 20.6886C51.871 20.6668 51.8246 20.6408 51.7755 20.6108C51.7263 20.578 51.6718 20.5439 51.6117 20.5084C51.5544 20.4702 51.4848 20.4361 51.4029 20.4061C51.3237 20.3733 51.2296 20.346 51.1204 20.3242C51.014 20.3024 50.8884 20.2914 50.7437 20.2914C50.5145 20.2914 50.3043 20.3338 50.1132 20.4184C49.9249 20.503 49.7611 20.6272 49.6219 20.7909C49.4855 20.952 49.379 21.1512 49.3026 21.3887C49.2289 21.6234 49.192 21.8923 49.192 22.1953C49.192 22.501 49.233 22.7725 49.3149 23.01C49.3995 23.2475 49.5127 23.4481 49.6547 23.6119C49.7993 23.7729 49.9672 23.8957 50.1583 23.9803C50.3493 24.0649 50.554 24.1072 50.7724 24.1072C50.898 24.1072 51.0126 24.1018 51.1163 24.0909C51.22 24.0772 51.3169 24.0568 51.407 24.0295C51.4971 23.9994 51.5817 23.9612 51.6608 23.9148C51.74 23.8657 51.8205 23.8043 51.9024 23.7306C51.9352 23.7033 51.9706 23.6815 52.0088 23.6651C52.0471 23.646 52.0866 23.6364 52.1276 23.6364ZM61.2226 22.1953C61.2226 22.6265 61.1475 23.0277 60.9974 23.399C60.85 23.7702 60.6412 24.0936 60.371 24.3693C60.1008 24.6422 59.7746 24.8565 59.3925 25.0121C59.0131 25.1676 58.5914 25.2454 58.1274 25.2454C57.6634 25.2454 57.2403 25.1676 56.8582 25.0121C56.4761 24.8565 56.1485 24.6422 55.8756 24.3693C55.6054 24.0936 55.3952 23.7702 55.2451 23.399C55.0977 23.0277 55.024 22.6265 55.024 22.1953C55.024 21.764 55.0977 21.3628 55.2451 20.9916C55.3952 20.6204 55.6054 20.2983 55.8756 20.0253C56.1485 19.7524 56.4761 19.5381 56.8582 19.3825C57.2403 19.227 57.6634 19.1492 58.1274 19.1492C58.5914 19.1492 59.0131 19.2283 59.3925 19.3866C59.7746 19.5422 60.1008 19.7565 60.371 20.0294C60.6412 20.3024 60.85 20.6244 60.9974 20.9957C61.1475 21.3669 61.2226 21.7667 61.2226 22.1953ZM59.806 22.1953C59.806 21.9005 59.7678 21.6357 59.6914 21.401C59.6149 21.1635 59.5044 20.9629 59.3597 20.7991C59.2178 20.6354 59.0431 20.5098 58.8357 20.4225C58.6282 20.3351 58.3921 20.2914 58.1274 20.2914C57.8599 20.2914 57.6211 20.3351 57.4109 20.4225C57.2035 20.5098 57.0274 20.6354 56.8827 20.7991C56.7408 20.9629 56.6316 21.1635 56.5552 21.401C56.4788 21.6357 56.4406 21.9005 56.4406 22.1953C56.4406 22.4928 56.4788 22.7603 56.5552 22.9977C56.6316 23.2325 56.7408 23.4317 56.8827 23.5955C57.0274 23.7592 57.2035 23.8848 57.4109 23.9721C57.6211 24.0568 57.8599 24.0991 58.1274 24.0991C58.3921 24.0991 58.6282 24.0568 58.8357 23.9721C59.0431 23.8848 59.2178 23.7592 59.3597 23.5955C59.5044 23.4317 59.6149 23.2325 59.6914 22.9977C59.7678 22.7603 59.806 22.4928 59.806 22.1953ZM69.14 19.2147V25.1799H68.4194C68.3129 25.1799 68.2229 25.1636 68.1492 25.1308C68.0782 25.0953 68.0072 25.0353 67.9363 24.9507L65.1235 21.3928C65.1345 21.4992 65.1413 21.603 65.144 21.704C65.1495 21.8022 65.1522 21.895 65.1522 21.9824V25.1799H63.9321V19.2147H64.6609C64.721 19.2147 64.7714 19.2174 64.8124 19.2229C64.8533 19.2283 64.8902 19.2392 64.9229 19.2556C64.9557 19.2693 64.9871 19.2897 65.0171 19.317C65.0471 19.3443 65.0812 19.3812 65.1195 19.4276L67.9567 23.01C67.9431 22.8954 67.9335 22.7848 67.9281 22.6784C67.9226 22.5692 67.9199 22.4668 67.9199 22.3713V19.2147H69.14ZM77.4003 19.2147V25.1799H76.6798C76.5733 25.1799 76.4832 25.1636 76.4095 25.1308C76.3386 25.0953 76.2676 25.0353 76.1966 24.9507L73.3839 21.3928C73.3948 21.4992 73.4017 21.603 73.4044 21.704C73.4099 21.8022 73.4126 21.895 73.4126 21.9824V25.1799H72.1925V19.2147H72.9213C72.9813 19.2147 73.0318 19.2174 73.0728 19.2229C73.1137 19.2283 73.1506 19.2392 73.1833 19.2556C73.2161 19.2693 73.2475 19.2897 73.2775 19.317C73.3075 19.3443 73.3416 19.3812 73.3798 19.4276L76.2171 23.01C76.2035 22.8954 76.1939 22.7848 76.1885 22.6784C76.183 22.5692 76.1803 22.4668 76.1803 22.3713V19.2147H77.4003ZM81.8449 20.2792V21.6712H83.7201V22.6947H81.8449V24.1154H84.2933V25.1799H80.4529V19.2147H84.2933V20.2792H81.8449ZM91.0625 23.6364C91.0953 23.6364 91.128 23.6432 91.1608 23.6569C91.1935 23.6678 91.2249 23.6883 91.2549 23.7183L91.8036 24.2956C91.5634 24.6095 91.2618 24.8469 90.8987 25.008C90.5385 25.1663 90.1113 25.2454 89.6173 25.2454C89.1642 25.2454 88.7575 25.169 88.3972 25.0162C88.0396 24.8606 87.7353 24.6477 87.4842 24.3775C87.2358 24.1045 87.0447 23.7824 86.911 23.4112C86.7772 23.0373 86.7104 22.632 86.7104 22.1953C86.7104 21.7504 86.7827 21.3423 86.9274 20.9711C87.072 20.5972 87.2754 20.2751 87.5374 20.0049C87.7994 19.7346 88.1133 19.5245 88.4791 19.3743C88.8448 19.2242 89.2474 19.1492 89.6869 19.1492C89.9107 19.1492 90.1208 19.1696 90.3174 19.2106C90.5166 19.2488 90.7022 19.3034 90.8742 19.3743C91.0461 19.4426 91.2044 19.5258 91.3491 19.6241C91.4938 19.7224 91.6221 19.8288 91.734 19.9434L91.2672 20.5699C91.2372 20.6081 91.2017 20.6436 91.1608 20.6763C91.1198 20.7063 91.0625 20.7213 90.9888 20.7213C90.9397 20.7213 90.8933 20.7104 90.8496 20.6886C90.8059 20.6668 90.7595 20.6408 90.7104 20.6108C90.6613 20.578 90.6067 20.5439 90.5466 20.5084C90.4893 20.4702 90.4197 20.4361 90.3378 20.4061C90.2587 20.3733 90.1645 20.346 90.0553 20.3242C89.9489 20.3024 89.8233 20.2914 89.6787 20.2914C89.4494 20.2914 89.2392 20.3338 89.0482 20.4184C88.8598 20.503 88.6961 20.6272 88.5569 20.7909C88.4204 20.952 88.3139 21.1512 88.2375 21.3887C88.1638 21.6234 88.127 21.8923 88.127 22.1953C88.127 22.501 88.1679 22.7725 88.2498 23.01C88.3344 23.2475 88.4477 23.4481 88.5896 23.6119C88.7343 23.7729 88.9021 23.8957 89.0932 23.9803C89.2843 24.0649 89.489 24.1072 89.7073 24.1072C89.8329 24.1072 89.9475 24.1018 90.0512 24.0909C90.155 24.0772 90.2519 24.0568 90.3419 24.0295C90.432 23.9994 90.5166 23.9612 90.5958 23.9148C90.6749 23.8657 90.7554 23.8043 90.8373 23.7306C90.8701 23.7033 90.9056 23.6815 90.9438 23.6651C90.982 23.646 91.0216 23.6364 91.0625 23.6364ZM98.3416 20.3119H96.6629V25.1799H95.2791V20.3119H93.6005V19.2147H98.3416V20.3119Z" fill="#154F30"/>
<path d="M54.8134 29.6586V35.6239H53.5933V32.193C53.5933 32.1138 53.5947 32.0278 53.5974 31.935C53.6029 31.8422 53.611 31.7481 53.622 31.6525L52.0375 34.7191C51.9884 34.8146 51.9215 34.8869 51.8369 34.9361C51.755 34.9852 51.6608 35.0098 51.5544 35.0098H51.3661C51.2596 35.0098 51.1641 34.9852 51.0795 34.9361C50.9976 34.8869 50.9321 34.8146 50.8829 34.7191L49.2985 31.6443C49.3067 31.7426 49.3135 31.8395 49.319 31.935C49.3244 32.0278 49.3271 32.1138 49.3271 32.193V35.6239H48.1071V29.6586H49.1634C49.2234 29.6586 49.2753 29.66 49.319 29.6627C49.3654 29.6655 49.4063 29.6737 49.4418 29.6873C49.4773 29.701 49.5087 29.7228 49.5359 29.7528C49.566 29.7801 49.5946 29.8197 49.6219 29.8715L51.1573 32.8972C51.2118 33.0009 51.2637 33.1087 51.3128 33.2206C51.3647 33.3325 51.4138 33.4471 51.4602 33.5645C51.5066 33.4444 51.5544 33.3271 51.6035 33.2124C51.6554 33.0978 51.71 32.9886 51.7673 32.8849L53.2985 29.8715C53.3258 29.8197 53.3531 29.7801 53.3804 29.7528C53.4104 29.7228 53.4432 29.701 53.4787 29.6873C53.5141 29.6737 53.5537 29.6655 53.5974 29.6627C53.6438 29.66 53.697 29.6586 53.7571 29.6586H54.8134ZM60.7355 33.3434L60.1827 31.7098C60.1418 31.6061 60.0981 31.4847 60.0517 31.3455C60.0053 31.2035 59.9589 31.0507 59.9125 30.8869C59.8716 31.0534 59.8279 31.2076 59.7815 31.3496C59.7351 31.4915 59.6914 31.6143 59.6505 31.718L59.1019 33.3434H60.7355ZM62.934 35.6239H61.8614C61.7413 35.6239 61.6444 35.5966 61.5707 35.542C61.497 35.4847 61.441 35.4124 61.4028 35.325L61.0507 34.2851H58.7825L58.4304 35.325C58.4004 35.4014 58.3458 35.4711 58.2666 35.5338C58.1902 35.5939 58.0947 35.6239 57.9801 35.6239H56.8992L59.2083 29.6586H60.6249L62.934 35.6239ZM69.249 30.1581C69.249 30.2291 69.2367 30.2987 69.2121 30.3669C69.1903 30.4352 69.1589 30.4993 69.118 30.5594L66.3175 34.5594H69.1589V35.6239H64.557V35.0917C64.557 35.0289 64.5679 34.9675 64.5898 34.9074C64.6116 34.8446 64.6416 34.7873 64.6798 34.7355L67.4885 30.7231H64.7863V29.6586H69.249V30.1581ZM74.1415 33.4622C74.1415 33.7952 74.0992 34.0981 74.0146 34.3711C73.9327 34.644 73.8072 34.8788 73.638 35.0753C73.4715 35.2691 73.2613 35.4206 73.0075 35.5297C72.7536 35.6362 72.4547 35.6894 72.1108 35.6894C71.9552 35.6894 71.801 35.6812 71.6482 35.6648C71.4981 35.6485 71.3411 35.6212 71.1773 35.583L71.251 34.7764C71.2592 34.7054 71.2879 34.6481 71.337 34.6044C71.3861 34.5608 71.4557 34.5389 71.5458 34.5389C71.5922 34.5389 71.6495 34.5471 71.7178 34.5635C71.786 34.5771 71.8679 34.584 71.9634 34.584C72.0972 34.584 72.2132 34.5662 72.3114 34.5307C72.4124 34.4925 72.4957 34.4311 72.5612 34.3465C72.6267 34.2592 72.6758 34.1459 72.7086 34.0067C72.7413 33.8675 72.7577 33.6955 72.7577 33.4908V29.6586H74.1415V33.4622ZM78.5264 35.6239H77.1343V29.6586H78.5264V35.6239ZM86.9849 32.6392C86.9849 33.0705 86.9099 33.469 86.7598 33.8347C86.6124 34.1978 86.4036 34.513 86.1333 34.7805C85.8631 35.0453 85.537 35.2527 85.1548 35.4028C84.7754 35.5502 84.3537 35.6239 83.8897 35.6239H81.5724V29.6586H83.8897C84.3537 29.6586 84.7754 29.7337 85.1548 29.8838C85.537 30.0339 85.8631 30.2414 86.1333 30.5061C86.4036 30.7709 86.6124 31.0862 86.7598 31.4519C86.9099 31.8149 86.9849 32.2107 86.9849 32.6392ZM85.5683 32.6392C85.5683 32.3444 85.5301 32.0783 85.4537 31.8409C85.3773 31.6034 85.2667 31.4028 85.1221 31.239C84.9801 31.0725 84.8055 30.9456 84.598 30.8582C84.3906 30.7682 84.1545 30.7231 83.8897 30.7231H82.9644V34.5594H83.8897C84.1545 34.5594 84.3906 34.5157 84.598 34.4284C84.8055 34.3383 84.9801 34.2114 85.1221 34.0476C85.2667 33.8811 85.3773 33.6792 85.4537 33.4417C85.5301 33.2042 85.5683 32.9367 85.5683 32.6392Z" fill="#79939E"/>
</svg>
