<svg width="29" height="29" viewBox="0 0 29 29" fill="none" xmlns="http://www.w3.org/2000/svg">
<path d="M14.5662 0.718262C15.3205 0.718262 15.9376 1.33538 15.9376 2.08964V3.46101C15.9376 4.21527 15.3205 4.83239 14.5662 4.83239C13.8119 4.83239 13.1948 4.21527 13.1948 3.46101V2.08964C13.1948 1.33538 13.8119 0.718262 14.5662 0.718262Z" fill="#F2C14E"/>
<path d="M14.5662 24.0316C15.3205 24.0316 15.9376 24.6487 15.9376 25.403V26.7744C15.9376 27.5286 15.3205 28.1457 14.5662 28.1457C13.8119 28.1457 13.1948 27.5286 13.1948 26.7744V25.403C13.1948 24.6487 13.8119 24.0316 14.5662 24.0316Z" fill="#F2C14E"/>
<path d="M26.9088 15.8034C27.663 15.8034 28.2801 15.1863 28.2801 14.432C28.2801 13.6778 27.663 13.0607 26.9088 13.0607H25.5374C24.7831 13.0607 24.166 13.6778 24.166 14.432C24.166 15.1863 24.7831 15.8034 25.5374 15.8034H26.9088Z" fill="#F2C14E"/>
<path d="M4.96666 14.432C4.96666 15.1863 4.34954 15.8034 3.59529 15.8034H2.22391C1.46966 15.8034 0.852539 15.1863 0.852539 14.432C0.852539 13.6778 1.46966 13.0607 2.22391 13.0607H3.59529C4.34954 13.0607 4.96666 13.6778 4.96666 14.432Z" fill="#F2C14E"/>
<path d="M21.3543 23.1538L22.3279 24.1274C22.8627 24.6622 23.7269 24.6622 24.2617 24.1274C24.7966 23.5926 24.7966 22.729 24.2617 22.1942L23.2881 21.2206C22.7533 20.6857 21.8891 20.6857 21.3543 21.2206C20.8194 21.7554 20.8194 22.6189 21.3543 23.1538Z" fill="#F2C14E"/>
<path d="M7.77833 7.6435C7.24349 8.17834 6.37931 8.17834 5.84448 7.6435L4.87085 6.66988C4.33602 6.13505 4.33602 5.27153 4.87085 4.7367C5.40569 4.20186 6.26987 4.20186 6.80471 4.7367L7.77833 5.71032C8.31316 6.24516 8.31316 7.10867 7.77833 7.6435Z" fill="#F2C14E"/>
<path d="M4.87085 22.1942C4.33602 22.729 4.33602 23.5926 4.87085 24.1274C5.40569 24.6622 6.26987 24.6622 6.80471 24.1274L7.77833 23.1538C8.31316 22.6189 8.31316 21.7554 7.77833 21.2206C7.24349 20.6857 6.37931 20.6857 5.84448 21.2206L4.87085 22.1942Z" fill="#F2C14E"/>
<path d="M21.3543 7.6435C20.8194 7.10867 20.8194 6.24516 21.3543 5.71032L22.3279 4.7367C22.8627 4.20186 23.7269 4.20186 24.2617 4.7367C24.7966 5.27153 24.7966 6.13505 24.2617 6.66988L23.2881 7.6435C22.7533 8.17834 21.8891 8.17834 21.3543 7.6435Z" fill="#F2C14E"/>
<path fill-rule="evenodd" clip-rule="evenodd" d="M14.5662 6.8894C10.3973 6.8894 7.02368 10.263 7.02368 14.432C7.02368 18.6009 10.3973 21.9745 14.5662 21.9745C18.7352 21.9745 22.1088 18.6009 22.1088 14.432C22.1088 10.263 18.7352 6.8894 14.5662 6.8894ZM9.76643 14.432C9.76643 11.7852 11.9195 9.63215 14.5662 9.63215C17.213 9.63215 19.3661 11.7852 19.3661 14.432C19.3661 17.0787 17.213 19.2318 14.5662 19.2318C11.9195 19.2318 9.76643 17.0787 9.76643 14.432Z" fill="#F2C14E"/>
</svg>
