<svg width="28" height="28" viewBox="0 0 28 28" fill="none" xmlns="http://www.w3.org/2000/svg">
<path d="M13.715 0C14.483 0 15.0865 0.617175 15.0865 1.3715V2.743C15.0865 3.49732 14.483 4.1145 13.715 4.1145C12.9607 4.1145 12.3435 3.49732 12.3435 2.743V1.3715C12.3435 0.617175 12.9607 0 13.715 0Z" fill="#F2C14E"/>
<path d="M27.43 13.715C27.43 14.4693 26.8265 15.0865 26.0585 15.0865H24.687C23.9327 15.0865 23.3155 14.4693 23.3155 13.715C23.3155 12.9607 23.9327 12.3435 24.687 12.3435H26.0585C26.8265 12.3435 27.43 12.9607 27.43 13.715Z" fill="#F2C14E"/>
<path d="M2.743 15.0865C3.51104 15.0865 4.1145 14.4693 4.1145 13.715C4.1145 12.9607 3.51104 12.3435 2.743 12.3435H1.3715C0.617175 12.3435 0 12.9607 0 13.715C0 14.4693 0.617175 15.0865 1.3715 15.0865H2.743Z" fill="#F2C14E"/>
<path d="M6.92617 6.92579C6.39128 7.46067 5.52736 7.46067 4.99247 6.92579L4.01876 5.95208C3.48388 5.41719 3.48388 4.5536 4.01876 4.01872C4.55365 3.48383 5.4313 3.48383 5.96619 4.01872L6.92617 4.99243C7.47477 5.52731 7.47477 6.3909 6.92617 6.92579Z" fill="#F2C14E"/>
<path d="M21.4786 4.01872L20.5049 4.99243C19.97 5.52731 19.97 6.3909 20.5049 6.92579C21.0398 7.46067 21.9174 7.46067 22.4523 6.92579L23.426 5.95208C23.9609 5.41719 23.9609 4.5536 23.426 4.01872C22.8911 3.48383 22.0135 3.48383 21.4786 4.01872Z" fill="#F2C14E"/>
<path d="M24.687 21.944C24.687 22.6983 24.0835 23.3155 23.3155 23.3155H4.1145C3.36017 23.3155 2.743 22.6983 2.743 21.944C2.743 21.1897 3.36017 20.5725 4.1145 20.5725H23.3155C24.0835 20.5725 24.687 21.1897 24.687 21.944Z" fill="#F2C14E"/>
<path d="M20.7238 26.3465C20.7238 27.1008 20.309 27.718 19.7809 27.718H6.58025C6.06165 27.718 5.63734 27.1008 5.63734 26.3465C5.63734 25.5922 6.06165 24.975 6.58025 24.975H19.7809C20.309 24.975 20.7238 25.5922 20.7238 26.3465Z" fill="#F2C14E"/>
<path d="M9.45048 15.9099C8.51786 14.1132 8.81944 11.8364 10.3281 10.314C12.207 8.44879 15.2383 8.44879 17.1173 10.314C18.6259 11.8364 18.9275 14.1132 17.9949 15.9099C17.6383 16.5956 17.9125 17.4186 18.5845 17.7615C19.2566 18.1181 20.0796 17.8436 20.4225 17.1715C21.89 14.3325 21.4374 10.7664 19.051 8.38C16.116 5.43128 11.3294 5.43128 8.3944 8.38C6.00799 10.7664 5.55539 14.3325 7.0229 17.1715C7.36577 17.8436 8.18879 18.1181 8.86083 17.7615C9.53286 17.4186 9.80707 16.5956 9.45048 15.9099Z" fill="#F2C14E"/>
</svg>
