<svg width="20" height="20" viewBox="0 0 20 20" fill="none" xmlns="http://www.w3.org/2000/svg">
<path fill-rule="evenodd" clip-rule="evenodd" d="M9.78243 1.41924C10.0568 1.78907 10.0808 2.29051 9.86603 2.69613C9.38882 3.54317 9.12622 4.52132 9.12622 5.55924C9.12622 8.85195 11.7986 11.5243 15.0913 11.5243C16.1292 11.5243 17.1073 11.2617 17.9544 10.7845C18.36 10.5697 18.8612 10.594 19.231 10.8684C19.6008 11.1428 19.7919 11.5958 19.7084 12.0491C18.8971 16.4991 15.0078 19.8754 10.3192 19.8754C5.04612 19.8754 0.775146 15.6044 0.775146 10.3313C0.775146 5.64275 4.15144 1.7534 8.60137 0.94215C9.05471 0.858639 9.50804 1.0494 9.78243 1.41924ZM6.87156 4.05633C4.66449 5.2732 3.16117 7.62315 3.16117 10.3313C3.16117 14.2801 6.37037 17.4893 10.3192 17.4893C13.0274 17.4893 15.3776 15.9863 16.5945 13.7792C16.1053 13.8628 15.6043 13.9103 15.0913 13.9103C10.4743 13.9103 6.7402 10.1762 6.7402 5.55924C6.7402 5.04625 6.78805 4.54546 6.87156 4.05633Z" fill="#F2C14E"/>
</svg>
