<svg width="28" height="28" viewBox="0 0 28 28" fill="none" xmlns="http://www.w3.org/2000/svg">
<path d="M15.0863 6.85745C15.0863 6.10313 14.4691 5.48596 13.7148 5.48596C12.9605 5.48596 12.3433 6.10313 12.3433 6.85745V8.22894C12.3433 8.98325 12.9605 9.60042 13.7148 9.60042C14.4691 9.60042 15.0863 8.98325 15.0863 8.22894V6.85745Z" fill="#F2C14E"/>
<path d="M12.3437 8.23227C12.3437 8.98659 12.9609 9.60376 13.7152 9.60376C14.4696 9.60376 15.0867 8.98659 15.0867 8.23227L15.0867 4.68034L15.4845 5.09152C16.0194 5.6264 16.897 5.6264 17.4319 5.09152C17.9668 4.55664 17.9668 3.67899 17.4319 3.14411L14.6889 0.401138C14.1541 -0.133742 13.2764 -0.133742 12.7415 0.401138L9.99856 3.14411C9.46368 3.67899 9.46368 4.55664 9.99856 5.09151C10.5334 5.62639 11.4111 5.62639 11.946 5.09152L12.3437 4.68034L12.3437 8.23227Z" fill="#F2C14E"/>
<path d="M26.0585 20.5724C26.8128 20.5724 27.43 19.9553 27.43 19.201C27.43 18.4466 26.8128 17.8295 26.0585 17.8295H24.687C23.9327 17.8295 23.3155 18.4466 23.3155 19.201C23.3155 19.9553 23.9327 20.5724 24.687 20.5724H26.0585Z" fill="#F2C14E"/>
<path d="M4.11446 19.201C4.11446 19.9553 3.49729 20.5724 2.74297 20.5724H1.37149C0.617169 20.5724 0 19.9553 0 19.201C0 18.4466 0.617169 17.8295 1.37149 17.8295H2.74297C3.49729 17.8295 4.11446 18.4466 4.11446 19.201Z" fill="#F2C14E"/>
<path d="M6.92511 12.4117C6.39023 12.9466 5.52598 12.9466 4.9911 12.4117L4.0174 11.438C3.48252 10.9031 3.48252 10.0396 4.0174 9.50468C4.55228 8.9698 5.41653 8.9698 5.95141 9.50468L6.92511 10.4784C7.45999 11.0133 7.45999 11.8768 6.92511 12.4117Z" fill="#F2C14E"/>
<path d="M20.5019 12.4117C19.967 11.8768 19.967 11.0133 20.5019 10.4784L21.4756 9.50468C22.0105 8.9698 22.8747 8.9698 23.4096 9.50468C23.9445 10.0396 23.9445 10.9031 23.4096 11.438L22.4359 12.4117C21.901 12.9466 21.0368 12.9466 20.5019 12.4117Z" fill="#F2C14E"/>
<path d="M9.44768 21.4096C8.51507 19.5992 8.80327 17.3225 10.3256 15.8138C12.1908 13.9349 15.2355 13.9349 17.1007 15.8138C18.623 17.3225 18.9112 19.5992 17.9786 21.4096C17.6357 22.0816 17.8962 22.905 18.5683 23.2479C19.2403 23.6044 20.0767 23.3299 20.4196 22.6579C21.8871 19.8189 21.4345 16.2528 19.0481 13.8664C16.0994 10.9177 11.3269 10.9177 8.37821 13.8664C5.99183 16.2528 5.53924 19.8189 7.00673 22.6579C7.3496 23.3299 8.18601 23.6044 8.85803 23.2479C9.53006 22.905 9.79055 22.0816 9.44768 21.4096Z" fill="#F2C14E"/>
<path d="M24.6867 25.7763C24.6867 26.5306 24.0833 27.1478 23.3153 27.1478H4.11445C3.36013 27.1478 2.74297 26.5306 2.74297 25.7763C2.74297 25.022 3.36013 24.4048 4.11445 24.4048H23.3153C24.0833 24.4048 24.6867 25.022 24.6867 25.7763Z" fill="#F2C14E"/>
</svg>
