<svg width="22" height="23" viewBox="0 0 22 23" fill="none" xmlns="http://www.w3.org/2000/svg">
<path d="M10.8858 2.77156C11.1257 2.31839 11.0989 1.77184 10.7924 1.35866C10.4991 0.932148 9.97934 0.732351 9.47286 0.82565C5.06112 1.62536 1.71558 5.49029 1.71558 10.1419C1.71558 12.5011 2.58223 14.6738 4.02171 16.3265C4.50153 16.8863 5.34111 16.9528 5.90091 16.473C6.44738 15.9931 6.51382 15.1406 6.034 14.5941C4.99437 13.3945 4.38128 11.8347 4.38128 10.1419C4.38128 7.68949 5.66103 5.54412 7.607 4.34456C7.55368 4.71775 7.52695 5.1041 7.52695 5.49063C7.52695 10.0756 11.2456 13.7943 15.8306 13.7943C16.2171 13.7943 16.6038 13.7675 16.977 13.7142C16.777 14.0208 16.5638 14.3142 16.3372 14.5941C15.8574 15.1406 15.9105 15.9931 16.4703 16.473C17.0301 16.9528 17.87 16.8863 18.3498 16.3265C19.4295 15.087 20.189 13.5411 20.4956 11.8483C20.5889 11.3419 20.3891 10.8217 19.9625 10.5285C19.5494 10.222 19.0028 10.1955 18.5496 10.4354C17.7499 10.8753 16.8169 11.1286 15.8306 11.1286C12.7117 11.1286 10.1926 8.60949 10.1926 5.49063C10.1926 4.50432 10.4459 3.5846 10.8858 2.77156Z" fill="#F2C14E"/>
<path d="M20.5225 22.1247C21.2556 22.1247 21.8554 21.5249 21.8554 20.7918C21.8554 20.0588 21.2556 19.459 20.5225 19.459H1.86264C1.12957 19.459 0.529785 20.0588 0.529785 20.7918C0.529785 21.5249 1.12957 22.1247 1.86264 22.1247H20.5225Z" fill="#F2C14E"/>
</svg>
