<svg width="29" height="29" viewBox="0 0 29 29" fill="none" xmlns="http://www.w3.org/2000/svg">
<path d="M16.4044 20.8692L10.2298 17.5015C9.63711 18.0899 8.8835 18.4896 8.06398 18.6502C7.24446 18.8109 6.39572 18.7253 5.62476 18.4043C4.8538 18.0833 4.19514 17.5412 3.73181 16.8464C3.26849 16.1516 3.02124 15.3352 3.02124 14.5C3.02124 13.6649 3.26849 12.8485 3.73181 12.1537C4.19514 11.4589 4.8538 10.9168 5.62476 10.5958C6.39572 10.2748 7.24446 10.1892 8.06398 10.3499C8.8835 10.5105 9.63711 10.9102 10.2298 11.4985L16.4044 8.13091C16.1926 7.13734 16.3456 6.10074 16.8353 5.21067C17.325 4.3206 18.1187 3.63655 19.0713 3.2836C20.0239 2.93065 21.0717 2.93238 22.0232 3.28849C22.9746 3.6446 23.766 4.33129 24.2528 5.22298C24.7395 6.11466 24.889 7.15176 24.674 8.14463C24.4589 9.13749 23.8936 10.0198 23.0815 10.6301C22.2694 11.2404 21.2648 11.5381 20.2513 11.4686C19.2378 11.399 18.2831 10.967 17.562 10.2515L11.3874 13.6192C11.5104 14.1996 11.5104 14.7993 11.3874 15.3797L17.562 18.7485C18.2831 18.033 19.2378 17.601 20.2513 17.5315C21.2648 17.462 22.2694 17.7596 23.0815 18.37C23.8936 18.9803 24.4589 19.8626 24.674 20.8554C24.889 21.8483 24.7395 22.8854 24.2528 23.7771C23.766 24.6688 22.9746 25.3555 22.0232 25.7116C21.0717 26.0677 20.0239 26.0694 19.0713 25.7165C18.1187 25.3635 17.325 24.6795 16.8353 23.7894C16.3456 22.8993 16.1926 21.8627 16.4044 20.8692Z" fill="#154F30"/>
</svg>
