<svg width="19" height="19" viewBox="0 0 19 19" fill="none" xmlns="http://www.w3.org/2000/svg">
<path d="M9.20168 0.835327C4.34383 0.835327 0.410034 4.77793 0.410034 9.63577C0.410034 14.4936 4.34383 18.4362 9.20168 18.4362C14.0683 18.4362 18.0109 14.4936 18.0109 9.63577C18.0109 4.77793 14.0683 0.835327 9.20168 0.835327ZM12.7307 13.1559C12.6492 13.2375 12.5525 13.3023 12.4461 13.3464C12.3396 13.3906 12.2255 13.4133 12.1102 13.4133C11.995 13.4133 11.8808 13.3906 11.7744 13.3464C11.6679 13.3023 11.5712 13.2375 11.4898 13.1559L8.59445 10.2606C8.51129 10.1791 8.44514 10.0819 8.39982 9.97464C8.3545 9.86739 8.33092 9.75221 8.33043 9.63577V6.11559C8.33043 5.63157 8.72645 5.23555 9.21048 5.23555C9.6945 5.23555 10.0905 5.63157 10.0905 6.11559V9.27495L12.7307 11.9151C13.0739 12.2583 13.0739 12.8127 12.7307 13.1559Z" fill="#FFBA18"/>
</svg>
